<?xml version="1.0" encoding="UTF-8" standalone="no"?>
<!-- Created with Inkscape (http://www.inkscape.org/) -->

<svg
   version="1.1"
   id="svg1"
   width="391.92154"
   height="597.75433"
   viewBox="0 0 391.92154 597.75433"
   xmlns="http://www.w3.org/2000/svg"
   xmlns:svg="http://www.w3.org/2000/svg">
  <defs
     id="defs1" />
  <g
     id="g1"
     transform="translate(-114.46026,-21.222355)">
    <path
       style="fill:#1b1b1b;stroke:none"
       d="m 303.8772,462.05715 c -2.57893,-8.32953 -5.99867,-16.47566 -9.06,-24.64 -4.99467,-13.32035 -9.89156,-26.67746 -14.88027,-40 -1.85008,-4.94074 -3.33073,-10.32754 -5.74403,-15.02074 -1.14951,-2.23551 -3.17441,-4.05785 -5.83425,-3.89715 -4.85727,0.29336 -5.84559,5.49977 -6.59688,9.31789 -2.04766,10.40625 -4.31217,20.75039 -6.88457,31.04 -10.93652,43.74609 -25.06728,86.5323 -39.32,129.28 -5.71957,17.15453 -11.84545,34.18066 -17.95398,51.2 -1.33571,3.72145 -2.85856,7.41223 -3.99657,11.2 -0.71254,2.3716 -0.81611,4.85371 1.10287,6.70398 4.2286,4.07723 10.54135,-0.0507 14.76768,-2.00203 l 3.52,-1.61742 50.56,-23.01191 c 46.93652,-21.36133 94.05383,-42.47852 140.16,-65.59328 10.78172,-5.40528 21.46309,-11.04668 32,-16.91579 3.70242,-2.06222 9.76945,-4.86753 7.76836,-10.18441 -1.2068,-3.20641 -4.37391,-4.02898 -7.44836,-4.19461 -5.33086,-0.28715 -10.67109,-0.41 -16,-0.7118 -24.3023,-1.37632 -48.66156,-1.7166 -72.96,-3.11273 13.87461,-11.01824 27.69945,-22.05312 40.96,-33.81461 80.63809,-64.02091 129.51318,-159.00386 116.15486,-263.49553 -2.20839,-16.44648 -6.56011,-32.58848 -12.6914,-48 -7.69481,-19.3416 -18.33574,-37.44605 -32.07785,-53.119997 C 399.64324,23.283819 314.72818,15.443254 245.9572,24.07743 c -46.87073,5.884619 -83.55929,18.923168 -107.52,29.93124 -28.45223,13.071517 -39.11279,29.702031 10.88,16.13703 41.04266,-11.136608 74.38932,-15.122256 104.64,-13.79379 30.78574,1.35196 61.20961,8.51141 89.6,20.44094 26.88855,11.29848 52.8143,27.70946 70.65016,51.1843 7.68175,10.11043 13.74297,21.46828 17.53722,33.6 22.70861,77.59269 -12.1592,148.73664 -54.80125,210.56 -9.51195,14.24516 -19.87195,27.91086 -30.57023,41.28 -13.42067,16.77121 -27.5,33.25066 -42.4959,48.64 z"
       id="path1" />
  </g>
</svg>
