<?xml version="1.0" encoding="UTF-8" standalone="no"?>
<!-- Created with Inkscape (http://www.inkscape.org/) -->

<svg
   version="1.1"
   id="svg1"
   width="4001.5635"
   height="3999.8906"
   viewBox="0 0 4001.5635 3999.8906"
   xmlns="http://www.w3.org/2000/svg"
   xmlns:svg="http://www.w3.org/2000/svg">
  <defs
     id="defs1" />
  <g
     id="g1"
     transform="translate(-5071.4326,1227.9277)">
    <g
       id="g2"
       transform="translate(5073.2651,-1227.694)">
      <g
         id="g9">
        <path
           style="fill:#ffffff"
           d="m 0.4602755,3474.1269 c 0.25315153,0.2532 0.8997079,11.2407 1.4367919,24.4167 0.731393,17.9429 1.6272581,27.5962 3.568924,38.4564 18.0349256,100.874 58.2319946,187.4177 123.5750586,266.0553 13.31491,16.0239 51.8797,54.5887 67.90364,67.9037 78.63764,65.343 165.18135,105.5401 266.05531,123.575 10.86024,1.9417 20.51349,2.8375 38.45639,3.5689 13.17602,0.5371 24.16352,1.1837 24.41667,1.4368 0.25315,0.2532 -525.66593602,-525.6659 -525.4127845,-525.4128 z M 3474.1269,3999.5397 c -3.2242,0 163.4661,8.9083 328.9284,-128.5807 16.0239,-13.315 54.5887,-51.8798 67.9037,-67.9037 65.343,-78.6376 105.5401,-165.1813 123.575,-266.0553 1.9417,-10.8602 2.8375,-20.5135 3.5689,-38.4564 0.5371,-13.176 1.1837,-24.1635 1.4368,-24.4167 0.4801,-0.4799 -133.6623,525.2784 -525.4128,525.4128 z M 525.87306,0.4602755 C 525.61991,0.71342703 514.63241,1.3599834 501.45639,1.8970674 483.51349,2.6284604 473.86024,3.5243255 463,5.4659914 362.12604,23.500917 275.58233,63.697986 196.94469,129.04105 180.92075,142.35596 142.35596,180.92075 129.04105,196.94469 63.697986,275.58233 23.500917,362.12604 5.4659914,463 3.5243255,473.86024 2.6284604,483.51349 1.8970674,501.45639 1.3599834,514.63241 0.71342703,525.61991 0.4602755,525.87306 -42.256604,263.23885 526.12621,0.20712398 525.87306,0.4602755 Z M 3998.9453,522.25 c -0.3255,-22.33 -2.1227,-46.49028 -4.4074,-59.25 C 3976.4602,362.03856 3936.303,275.58354 3870.959,196.94469 3857.644,180.92075 3819.0792,142.35596 3803.0553,129.04105 3724.4177,63.697986 3637.874,23.500917 3537,5.4659914 3526.1398,3.5243255 3516.4865,2.6284604 3498.5436,1.8970674 3485.3676,1.3599834 3473.7702,0.49151477 3474.1269,0.4602755 3734.8881,-22.378143 3999.775,526 3999.5,526 c -0.275,0 -0.5246,-1.6875 -0.5547,-3.75 z"
           id="path9" />
        <path
           style="fill:#fefefe"
           d="m 1694.9692,3360.9724 c -45.9869,-5.3849 -92.936,-61.2996 -141.4586,-168.4724 -50.9924,-112.6277 -103.7648,-261.9528 -170.5184,-482.5 -61.0014,-201.5427 -115.5185,-415.4355 -162.6137,-638 -48.9418,-231.2915 -93.3502,-469.4904 -109.9028,-589.5 -15.7668,-114.3121 -41.3129,-201.6083 -77.7349,-265.6362 -11.1537,-19.6076 -21.4479,-42.9213 -26.2138,-59.3674 -9.37868,-32.3638 -2.8881,-68.1528 16.898,-93.1751 15.6649,-19.8104 37.0037,-32.4213 62.3348,-36.8386 11.9964,-2.092 19.3407,-1.9153 81.5088,1.9617 155.8216,9.7174 236.7192,13.7509 312.2314,15.5675 41.2766,0.9931 71.1442,0.5105 125.5,-2.0274 48.0266,-2.2424 130.3667,-7.7206 212,-14.1045 43.2393,-3.3814 53.638,-3.3639 66,0.1107 16.9371,4.7605 33.4286,15.0847 46.5,29.1103 11.2947,12.1193 19.7214,27.6006 23.6897,43.522 2.9411,11.8 3.153,32.865 0.4564,45.377 -3.9015,18.1029 -12.6859,42.5514 -23.8937,66.5 -16.4671,35.1867 -24.4343,61.372 -27.8403,91.5 -1.4941,13.216 -0.6773,60.319 1.5432,89 10.2317,132.1525 36.5078,321.5806 82.465,594.5 28.7319,170.6262 39.8392,226.5033 58.4911,294.2484 16.5143,59.9815 25.9812,82.2516 39.4627,92.8327 7.1781,5.6339 12.5525,7.4189 22.3373,7.4189 6.3425,0 8.7812,-0.4693 12.6647,-2.4372 25.6818,-13.014 50.2754,-79.7843 72.0321,-195.5628 25.7753,-137.1637 52.9271,-339.5975 72.0263,-537 15.9073,-164.4126 24.4886,-272.7219 25.7504,-325.0094 0.6746,-27.955 -0.019,-36.2387 -4.313,-51.4906 -3.1891,-11.3284 -15.6586,-40.9374 -24.4632,-58.0882 -19.4842,-37.9543 -27.9384,-66.6174 -26.5472,-90.0058 1.7579,-29.5544 13.3965,-56.499 32.5714,-75.406 14.3154,-14.1155 34.1202,-21.9691 55.4598,-21.9924 3.791,0 22.241,1.3354 41,2.9768 74.0574,6.4801 161.8347,12.5083 221.6073,15.2191 40.7108,1.8464 113.253,1.578 141,-0.5216 30.9039,-2.3384 51.8141,-4.2669 83.5,-7.7009 70.3402,-7.6231 93.7599,-9.3035 131,-9.3989 27.9702,-0.072 32.8185,0.1456 38.5,1.726 19.4682,5.4154 30.7129,11.5302 41.4193,22.5235 18.7479,19.2504 28.7373,44.8645 28.9252,74.1684 0.1375,21.4375 -6.5042,37.8376 -28.9747,71.5461 -5.1498,7.7253 -11.7154,16.9503 -14.5902,20.5 -18.6368,23.0119 -22.6652,28.46 -25.9285,35.0666 -19.1739,38.8175 -40.8688,149.6551 -65.3719,333.9798 -22.1255,166.4395 -58.1265,351.624 -117.9865,606.9075 -78.0516,332.8645 -159.7526,624.9541 -232.301,830.5 -53.864,152.6088 -99.6658,250.6295 -139.0119,297.5 -13.0048,15.4918 -25.645,24.4634 -44.839,31.8253 -23.2789,8.9288 -37.2545,9.6908 -87.8408,4.7894 -50.7466,-4.9169 -107.6232,-9.6626 -145,-12.0985 -88.4626,-5.7652 -150.2178,-6.0461 -224.5,-1.0213 -23.4005,1.5829 -34.3301,2.6136 -79.5,7.4967 -44.5687,4.8182 -77.5169,7.4309 -113.5,9.0004 -24.7073,1.0776 -24.6606,1.0776 -34.0308,-0.02 z"
           id="path8" />
        <path
           style="fill:#fcfcfc"
           d="m 2351,3360.3031 c 25.5296,-4.5718 44.182,-12.6164 60.8524,-26.2449 5.9995,-4.9047 18.8824,-20.4659 27.3684,-33.0582 6.5704,-9.7496 10.2744,-14.6889 8.2491,-11 -4.4162,8.0435 -19.7032,28.8116 -27.4339,37.2702 -5.1508,5.6358 -16.9152,15.2328 -23.864,19.4675 -9.5924,5.8457 -31.1149,12.806 -42.0675,13.6045 -3.0825,0.2247 -4.4795,0.2071 -3.1045,-0.039 z m -693.995,-14.0403 c -10.4036,-7.1175 -26.2229,-22.5673 -36.6227,-35.7673 -9.13,-11.5881 -26.4191,-36.7436 -22.6774,-32.9955 0.549,0.55 4.3275,5.948 8.3967,11.9955 16.2122,24.0946 35.4196,45.1588 50.6235,55.5174 8.0774,5.5033 10.0249,6.9871 9.1703,6.9871 -0.2775,0 -4.2782,-2.5817 -8.8904,-5.7372 z"
           id="path7" />
        <path
           style="fill:#d8d8d8"
           d="m 2456.5,3627.3752 c -6.1452,-0.5066 -21.5856,-3.0604 -27,-4.4656 -2.2,-0.571 -6.0059,-1.4631 -8.4576,-1.9825 -5.341,-1.1314 -14.9379,-4.369 -20.7815,-7.0107 -2.3315,-1.054 -4.7371,-1.9164 -5.3457,-1.9164 -0.6086,0 -2.301,-0.6377 -3.7609,-1.4171 -1.4599,-0.7793 -5.8043,-2.962 -9.6543,-4.8502 -9.6922,-4.7535 -21.9071,-12.102 -25.2148,-15.1691 -1.5206,-1.41 -3.2194,-2.5657 -3.775,-2.5682 -0.5556,0 -2.4483,-1.3526 -4.206,-3 -1.7576,-1.6475 -3.4666,-2.9954 -3.7977,-2.9954 -0.3311,0 -1.6446,-1.125 -2.9189,-2.5 -1.2743,-1.375 -2.6637,-2.5 -3.0876,-2.5 -0.4239,0 -1.7686,-1.0125 -2.9884,-2.25 -1.2197,-1.2375 -5.5463,-5.4125 -9.6146,-9.2779 -4.0684,-3.8653 -10.772,-10.8403 -14.897,-15.5 C 2300.3069,3537.893 2299.2707,3537 2295.9485,3537 c -2.9485,0 -2.9485,0 -2.9485,9.2504 0,8.3314 0.8314,13.9228 3.8988,26.2215 1.1277,4.5214 0.8206,5.3584 -1.2466,3.3971 -0.7937,-0.7529 -3.5807,-3.169 -6.1933,-5.369 -5.5004,-4.6316 -11.5573,-10.6462 -16.2565,-16.1428 -5.6952,-6.6617 -15.1987,-19.8059 -15.2006,-21.0239 0,-0.6416 -0.3393,-1.3166 -0.7518,-1.5 -1.063,-0.4724 -7.5182,-13.2922 -9.9868,-19.8333 -5.5125,-14.6068 -9.274,-32.9748 -9.2549,-45.1926 0.01,-5.3538 2.2351,-22.9116 3.8437,-30.3074 1.8748,-8.62 6.8652,-20.9348 13.3409,-32.9212 4.7358,-8.766 6.5528,-11.7454 9.9319,-16.2859 6.0551,-8.1362 5.6966,-8.8835 -7.2779,-15.1679 -6.1033,-2.9562 -11.9304,-6.2085 -12.9491,-7.2272 -1.0188,-1.0188 -3.7659,-3.2385 -6.1048,-4.9328 -4.2526,-3.0805 -4.2526,-3.0805 2.8421,-2.7728 4.6648,0.2024 6.9518,0.687 6.6776,1.4149 -0.7479,1.9855 10.1115,5.3929 17.1873,5.3929 5.3839,0 11.8182,-1.6762 11.0716,-2.8842 -0.2344,-0.3792 4.7912,-0.1301 11.1679,0.5534 6.3766,0.6835 12.0814,0.9512 12.6772,0.5948 0.5958,-0.3563 0.4083,0.182 -0.4167,1.1963 -1.2209,1.501 -1.5679,6.5141 -1.8647,26.9419 -0.3672,25.2685 0.67,42.7356 3.5392,59.5978 2.8139,16.5379 5.189,28.6476 6.3742,32.5 2.7338,8.8857 8.2951,25.3924 9.4335,28 0.7203,1.65 2.2951,5.475 3.4994,8.5 1.2044,3.025 2.5945,6.2707 3.0892,7.2126 0.4947,0.9419 2.7265,5.202 4.9597,9.4668 7.4682,14.2629 9.0691,16.3168 12.7195,16.3188 4.3092,0 4.25,-1.2157 -0.7893,-16.2358 -12.2826,-36.6101 -17.2101,-68.7989 -14.889,-97.2624 0.6279,-7.7 1.355,-14.3535 1.6159,-14.7855 0.2609,-0.4321 0.8899,-3.3571 1.3979,-6.5 0.5079,-3.143 1.3289,-7.7395 1.8244,-10.2145 0.4956,-2.475 1.5651,-7.875 2.3767,-12 2.9456,-14.9703 5.986,-27.5273 6.9612,-28.75 0.5484,-0.6875 2.9441,-1.25 5.3239,-1.25 12.0831,0 37.983,-7.3506 50.2188,-14.2524 4.911,-2.7702 5.4188,-2.8682 7.0788,-1.3659 0.9835,0.8901 2.3152,1.6183 2.9594,1.6183 0.6442,0 1.1713,0.3975 1.1713,0.8834 0,0.4858 0.7875,1.1545 1.75,1.486 2.2445,0.7729 8.1193,4.3611 9.7007,5.925 0.6705,0.6631 2.5309,2.0982 4.1342,3.1891 6.5003,4.4231 20.412,19.7336 25.3324,27.8795 2.7955,4.6281 5.0827,8.8302 5.0827,9.338 0,0.5079 0.9,2.7861 2,5.0629 1.1,2.2767 2,4.7462 2,5.4878 0,0.7416 0.3809,1.7758 0.8464,2.2983 0.865,0.9708 3.1265,10.8219 5.154,22.45 0.6233,3.575 1.5304,8.3 2.0158,10.5 0.4854,2.2 1.6113,8.05 2.502,13 2.4146,13.4191 3.2171,15.958 8.4475,26.725 2.9464,6.0652 6.7204,11.4085 11.1079,15.7264 4.2596,4.1919 9.7777,8.8171 12.9264,10.8344 3.5,2.2424 3.5,2.2424 -3.5,1.5731 -6.3381,-0.606 -14.4087,-2.4493 -29.2295,-6.6758 -2.8763,-0.8202 -8.9851,-3.3344 -13.5751,-5.5872 -4.59,-2.2527 -8.8742,-4.0959 -9.5204,-4.0959 -0.6463,0 -1.175,-0.45 -1.175,-1 0,-0.55 -0.5901,-1 -1.3114,-1 -0.7213,0 -2.1838,-0.7911 -3.25,-1.758 -1.7461,-1.5833 -4.9918,-3.9511 -9.242,-6.742 -2.7814,-1.8264 -20.82,-19.9541 -22.6383,-22.75 -1.2689,-1.9513 -2.6263,-2.75 -4.6733,-2.75 -2.4817,0 -2.8844,0.3845 -2.8807,2.75 0,2.5475 4.9742,13.4118 10.0977,22.0725 6.1963,10.4742 13.5251,21.3982 16.4628,24.5391 0.5856,0.6261 1.4856,1.8642 2,2.7513 1.9129,3.2991 9.2017,11.5789 17.9352,20.374 8.6526,8.7136 12.3128,11.9477 21,18.5549 2.2,1.6733 4.7308,3.6454 5.6239,4.3825 2.5688,2.12 14.9065,9.1629 23.5071,13.4188 8.266,4.0905 25.3913,10.1901 33.869,12.0633 16.6784,3.6853 43.631,5.1224 58.7092,3.1304 18.6907,-2.4694 21.1556,-2.9096 33.2908,-5.9463 9.0469,-2.2639 9.5,-2.3215 9.5,-1.2071 0,0.6141 -0.5159,1.1166 -1.1465,1.1166 -0.6306,0 -3.4473,1.4625 -6.2593,3.25 -2.812,1.7875 -6.0086,3.7817 -7.1035,4.4315 -3.6865,2.188 -18.6743,9.3185 -19.5867,9.3185 -0.4972,0 -0.904,0.45 -0.904,1 0,0.55 -0.6613,1 -1.4696,1 -0.8083,0 -3.0719,0.9 -5.0304,2 -1.9585,1.1 -4.2221,2 -5.0304,2 -0.8083,0 -1.4696,0.45 -1.4696,1 0,0.55 -0.7195,1 -1.5989,1 -0.8793,0 -3.0168,0.6118 -4.75,1.3595 -7.3897,3.1881 -9.8216,4.0786 -22.6511,8.2941 -16.7063,5.4894 -27.0106,8.0115 -48.5,11.8707 -7.9981,1.4364 -39.5652,2.6288 -49,1.8509 z m 102.5,-75.0076 c -8.4584,-0.7547 -20.2481,-2.7432 -29.5,-4.9753 -10.7721,-2.599 -18.926,-5.2578 -16.5,-5.3802 12.7266,-0.6425 35.7322,-4.3076 48,-7.647 32.8055,-8.9301 65.1452,-29.0788 83.7375,-52.1712 2.0694,-2.5702 4.55,-5.5502 5.5125,-6.6221 0.9625,-1.0719 1.75,-2.2819 1.75,-2.6889 0,-0.407 0.6334,-1.3735 1.4077,-2.1477 1.9883,-1.9884 8.5923,-12.4441 8.5923,-13.6038 0,-0.5306 0.3415,-1.1147 0.7589,-1.2981 0.7455,-0.3274 2.4327,-3.3729 9.6025,-17.3333 5.0633,-9.8588 14.7454,-31.1015 17.7756,-39 1.055,-2.75 2.3557,-6.0125 2.8906,-7.25 1.4675,-3.3956 2.6373,-6.3771 4.0215,-10.25 0.688,-1.925 1.9043,-5.075 2.7029,-7 0.7985,-1.925 1.7958,-4.4 2.2162,-5.5 0.4203,-1.1 1.2395,-3.125 1.8203,-4.5 0.5809,-1.375 1.8199,-4.75 2.7533,-7.5 1.6312,-4.806 9.6392,-26.3296 11.7198,-31.5 2.1312,-5.2963 2.6349,-6.654 4.2665,-11.5 0.9259,-2.75 2.044,-5.9 2.4847,-7 0.4406,-1.1 1.555,-4.025 2.4763,-6.5 0.9213,-2.475 2.2583,-5.85 2.9712,-7.5 0.7128,-1.65 2.0951,-5.25 3.0716,-8 0.9766,-2.75 2.8314,-7.3337 4.1218,-10.1859 1.2905,-2.8523 2.3463,-5.5764 2.3463,-6.0537 0,-0.4772 1.0796,-3.0936 2.399,-5.8141 1.3195,-2.7204 3.1883,-6.7463 4.1529,-8.9463 0.9646,-2.2 3.1991,-7.15 4.9656,-11 1.7665,-3.85 4.0368,-8.8 5.0451,-11 1.0082,-2.2 2.0824,-4.225 2.3869,-4.5 0.3045,-0.275 1.2159,-1.85 2.0253,-3.5 1.7609,-3.5898 13.0688,-21.7877 13.9811,-22.5 0.3523,-0.275 1.7197,-2.075 3.0388,-4 2.5877,-3.7762 11.8447,-13.045 16.8903,-16.9119 4.0089,-3.0723 4.3292,-7.0881 0.5653,-7.0881 -3.2849,0 -7.1251,2.0202 -15.8754,8.3515 -9.2052,6.6605 -12.1975,9.2957 -23.0498,20.2998 -11.4225,11.5822 -13.3073,13.7138 -17.5507,19.8487 -1.9022,2.75 -4.4814,6.35 -5.7315,8 -1.2502,1.65 -2.6038,3.45 -3.008,4 -0.4042,0.55 -1.5412,2.575 -2.5266,4.5 -0.9855,1.925 -3.3181,6.425 -5.1836,10 -4.2148,8.0773 -9.7484,22.1145 -12.6147,32 -1.196,4.125 -2.7824,9.4056 -3.5252,11.7347 -0.7429,2.3291 -1.4541,5.5916 -1.5805,7.25 -0.1263,1.6584 -0.512,3.0153 -0.8569,3.0153 -0.7879,0 -3.0152,6.7447 -3.2198,9.75 -0.084,1.2375 -0.5074,2.25 -0.9404,2.25 -0.433,0 -0.7872,0.8734 -0.7872,1.941 0,1.0675 -0.4108,2.1949 -0.913,2.5052 -0.5021,0.3104 -1.2311,2.4744 -1.6198,4.809 -0.3888,2.3347 -1.5529,5.9144 -2.587,7.955 -1.0341,2.0406 -1.8802,4.4092 -1.8802,5.2635 0,0.8544 -0.3975,2.3348 -0.8833,3.2899 -1.1575,2.2754 -2.2992,5.1577 -5.6391,14.2364 -3.5983,9.7813 -14.1327,33.183 -17.6883,39.294 -1.5341,2.6367 -2.7893,5.0332 -2.7893,5.3255 0,0.4645 -6.185,11.2037 -9.7219,16.8805 -0.6854,1.1 -1.5308,2.7875 -1.8787,3.75 -0.348,0.9625 -0.9332,1.75 -1.3004,1.75 -0.3673,0 -1.5121,1.4292 -2.5439,3.1761 -1.724,2.9184 -3.4344,5.2257 -6.0681,8.1855 -0.5571,0.6261 -1.8684,2.4884 -2.9139,4.1384 -1.0456,1.65 -3.9647,5.4595 -6.4871,8.4656 -2.5223,3.006 -5.261,6.3167 -6.086,7.3569 -1.2702,1.6016 -14.5224,14.7594 -19.8509,19.7095 -0.907,0.8426 -3.8991,3.3099 -6.6491,5.4829 -2.75,2.173 -5.15,4.2961 -5.3333,4.718 -0.1834,0.4219 -0.714,0.7671 -1.1793,0.7671 -0.4653,0 -3.5565,1.8004 -6.8693,4.0008 -5.8737,3.9014 -13.7351,8.0985 -25.347,13.5324 -6.2916,2.9442 -9.1626,2.9572 -18.7711,0.085 -3.025,-0.9042 -6.9625,-1.9221 -8.75,-2.2621 -1.7875,-0.3399 -3.25,-0.9507 -3.25,-1.3573 0,-0.4065 -1.9934,-1.2973 -4.4299,-1.9795 -2.4364,-0.6821 -5.2835,-2.0355 -6.3268,-3.0076 -1.0434,-0.972 -2.9742,-2.1092 -4.2907,-2.527 -4.7387,-1.504 -9.1792,-7.5975 -14.0172,-19.235 -0.5145,-1.2375 -1.3627,-3.2625 -1.885,-4.5 -3.8738,-9.1782 -8.9839,-30.0364 -11.718,-47.83 -0.5421,-3.5275 -0.4715,-3.6135 4.8087,-5.861 7.0225,-2.9892 23.7063,-12.3248 26.7622,-14.9752 1.3215,-1.1461 2.7052,-2.0838 3.0749,-2.0838 1.2563,0 16.7547,-12.7058 20.1266,-16.5 0.4888,-0.55 2.2824,-2.5553 3.9858,-4.4562 1.7034,-1.9009 4.4876,-5.5009 6.1872,-8 1.6996,-2.4991 3.3824,-4.7688 3.7394,-5.0438 0.3571,-0.275 1.8668,-3.2 3.355,-6.5 1.4881,-3.3 3.1382,-6.7814 3.6667,-7.7364 0.5286,-0.9551 0.9611,-2.6426 0.9611,-3.75 0,-1.1075 0.4542,-2.0136 1.0093,-2.0136 1.3797,0 20.9802,19.5442 24.5706,24.5 1.5939,2.2 3.578,4.675 4.4091,5.5 1.2786,1.2693 2.958,4.4642 9.9873,19 0.399,0.825 1.8736,1.6382 3.277,1.807 2.2556,0.2714 2.6242,-0.1347 3.1773,-3.5 0.344,-2.0938 0.6382,-6.057 0.6535,-8.807 0.015,-2.75 0.065,-6.8 0.1108,-9 0.5541,-26.762 -5.8139,-52.622 -16.9269,-68.7397 -1.7974,-2.6069 -3.268,-5.1944 -3.268,-5.75 0,-0.5557 -0.4197,-1.0103 -0.9326,-1.0103 -0.5129,0 -1.2174,-0.8973 -1.5655,-1.9941 -0.3481,-1.0967 -1.1659,-2.5592 -1.8174,-3.25 -2.2763,-2.4135 -6.8098,-18.8282 -6.9623,-25.2084 -0.2115,-8.8529 4.9142,-29.0551 9.4709,-37.3279 0.9938,-1.8042 1.8069,-3.6845 1.8069,-4.1783 0,-0.8019 6.3346,-12.0137 8.2156,-14.5413 0.4094,-0.55 3.0712,-4.15 5.9153,-8 5.6243,-7.6135 20.4546,-23.1684 22.8691,-23.9865 0.825,-0.2796 2.85,-1.747 4.5,-3.2609 1.65,-1.5139 4.8,-4.0795 7,-5.7012 2.2,-1.6217 4.675,-3.652 5.5,-4.5118 0.825,-0.8598 4.425,-4.0276 8,-7.0396 3.575,-3.012 7.175,-6.1585 8,-6.9923 0.825,-0.8337 3.6911,-3.2756 6.369,-5.4263 2.678,-2.1507 5.8551,-4.8489 7.0603,-5.9959 2.013,-1.9158 6.8361,-5.9919 12.2365,-10.3412 1.1912,-0.9594 2.9912,-2.4289 4,-3.2656 1.0088,-0.8368 5.6592,-4.4368 10.3342,-8 4.675,-3.5633 8.725,-6.7037 9,-6.9787 2.1105,-2.1105 26.1091,-17.9267 36,-23.7257 9.6422,-5.6531 22.1158,-12.1367 29.5,-15.3336 2.75,-1.1906 7.25,-3.1491 10,-4.3524 12.2984,-5.3811 33.7088,-11.389 56,-15.7138 10.3038,-1.9992 47.3738,-1.6921 58.5,0.4845 15.1757,2.9689 17.0732,3.3809 17.4899,3.7976 0.2259,0.2259 -4.5169,5.4569 -10.5396,11.6244 -6.0227,6.1676 -10.9503,11.6328 -10.9503,12.1449 0,0.5122 -0.6894,1.6207 -1.532,2.4633 -2.5543,2.5543 -7.8546,12.7126 -10.2933,19.7277 -2.0172,5.8026 -2.2474,8.0179 -1.8709,18 0.2362,6.2607 0.9661,13.8581 1.6221,16.8831 6.4068,29.5441 6.5969,80.0043 0.4426,117.5 -0.8124,4.95 -1.9039,11.7 -2.4254,15 -0.9703,6.1396 -2.5193,13.05 -3.9227,17.5 -0.4337,1.375 -1.3619,4.525 -2.0627,7 -7.6989,27.1893 -19.8058,52.1286 -33.4577,68.9206 -4.0373,4.9659 -10.0488,11.6197 -11.8169,13.0794 -0.9993,0.825 -4.1493,3.6296 -7,6.2325 -2.8507,2.6029 -5.7081,4.7404 -6.3498,4.75 -0.6416,0.01 -1.3166,0.4159 -1.5,0.9029 -0.1833,0.487 -3.9333,3.0517 -8.3333,5.6994 -4.4,2.6477 -8.15,5.1742 -8.3333,5.6146 -0.1834,0.4403 -1.1959,0.8006 -2.25,0.8006 -1.0542,0 -1.9219,0.3375 -1.9282,0.75 -0.01,0.4125 -1.9188,1.6432 -4.25,2.7349 -2.3312,1.0916 -4.4635,2.2166 -4.7385,2.5 -1.0006,1.0308 -6.5683,4.1373 -9.25,5.161 -1.5125,0.5774 -2.75,1.4557 -2.75,1.9519 0,0.4962 -0.6839,0.9022 -1.5199,0.9022 -0.8359,0 -3.1984,1.0586 -5.25,2.3524 -6.4306,4.0555 -29.642,14.837 -34.4801,16.0157 -2.081,0.507 -2.75,1.2735 -2.75,3.151 0,2.3321 0.3209,2.4809 5.3508,2.4809 2.9429,0 6.6554,-0.3939 8.25,-0.8754 1.5945,-0.4815 5.3742,-1.4003 8.3992,-2.0418 3.025,-0.6415 7.075,-1.597 9,-2.1234 30.2667,-8.2758 39.6799,-11.6113 56.7057,-20.0933 4.0119,-1.9986 7.2943,-3.5197 7.2943,-3.3802 0,0.1395 -3.1862,2.8998 -7.0803,6.1339 -3.8942,3.2341 -8.4753,7.1177 -10.1802,8.6302 -1.7048,1.5125 -3.3998,2.75 -3.7666,2.75 -0.3668,0 -1.7281,0.9204 -3.0251,2.0453 -1.297,1.1248 -3.9533,3.0136 -5.903,4.1972 -1.9496,1.1835 -3.7698,2.4154 -4.0448,2.7375 -0.9617,1.1263 -10.5351,6.8064 -14.5,8.6032 -2.2,0.9969 -4.225,2.0653 -4.5,2.3743 -0.7785,0.8745 -12.1689,6.1241 -22.5,10.3698 -4.8932,2.0109 -16.2041,4.7407 -30.25,7.3007 -1.6185,0.295 -2.25,1.1064 -2.25,2.8911 0,2.4809 0,2.4809 22.25,2.4822 12.2375,7e-4 26.075,-0.484 30.75,-1.0772 13.7304,-1.742 28.8726,-4.4157 36.25,-6.4009 4.1986,-1.1298 3.2506,0.602 -2.4457,4.4681 -2.8293,1.9203 -5.6302,3.9547 -6.2242,4.521 -0.5941,0.5663 -3.4838,2.556 -6.4217,4.4217 -2.9379,1.8656 -5.8629,3.8927 -6.5,4.5047 -1.1428,1.0978 -20.8945,13.1319 -24.6989,15.0484 -1.0777,0.5429 -1.9595,1.3304 -1.9595,1.75 0,0.4196 -0.8734,0.7629 -1.941,0.7629 -1.0675,0 -2.2308,0.469 -2.585,1.0421 -0.3543,0.5732 -2.4058,1.7471 -4.5591,2.6086 -2.1532,0.8616 -3.9149,1.8836 -3.9149,2.2712 0,0.3877 -1.665,1.3513 -3.7,2.1415 -3.4645,1.3452 -5.7685,2.4738 -15.8,7.7394 -6.1889,3.2487 -23.2404,10.6915 -34,14.8407 -2.2,0.8484 -4.9,1.9154 -6,2.3712 -3.4996,1.4499 -22.7738,7.7727 -29,9.5132 -3.3,0.9225 -7.125,2.0381 -8.5,2.4791 -1.375,0.441 -4.75,1.3232 -7.5,1.9605 -2.75,0.6373 -6.575,1.5697 -8.5,2.072 -1.925,0.5023 -6.65,1.3928 -10.5,1.979 -3.85,0.5861 -9.7,1.5164 -13,2.0673 -14.1895,2.3684 -38.4718,3.4443 -51.5,2.2818 z"
           id="path6" />
        <path
           style="fill:#d6d6d6"
           d="m 2368.9841,3600.209 c -18.179,-10.6283 -33.0545,-22.5112 -50.5401,-40.3725 -7.1808,-7.3351 -14.683,-15.2888 -16.6716,-17.6749 -2.3712,-2.8452 -4.2449,-4.2117 -5.444,-3.9703 -3.6807,0.7412 -1.4801,25.8914 3.3138,37.8726 0.8845,2.2105 1.4109,4.2163 1.1698,4.4574 -0.9134,0.9134 -16.9182,-12.8403 -25.5263,-21.9359 -13.7054,-14.4816 -24.1722,-31.3383 -30.6439,-49.3517 -3.1427,-8.7474 -6.691,-25.5756 -6.5134,-30.8908 0.1061,-3.1793 0.2815,-2.8069 1.0157,2.1571 1.6793,11.3549 4.1843,21.0736 8.1191,31.5 2.4686,6.5411 8.9238,19.3609 9.9868,19.8333 0.4125,0.1834 0.7508,0.8584 0.7518,1.5 0,1.218 9.5054,14.3622 15.2006,21.0239 4.6992,5.4966 10.7561,11.5112 16.2565,16.1428 2.6126,2.2 5.3996,4.6161 6.1933,5.369 2.0672,1.9613 2.3743,1.1243 1.2466,-3.3971 -3.0674,-12.2987 -3.8988,-17.8901 -3.8988,-26.2215 0,-9.2504 0,-9.2504 2.9485,-9.2504 3.3222,0 4.3584,0.893 15.0515,12.9721 4.125,4.6597 10.8286,11.6347 14.897,15.5 4.0683,3.8654 8.3949,8.0404 9.6146,9.2779 1.2198,1.2375 2.5645,2.25 2.9884,2.25 0.4239,0 1.8133,1.125 3.0876,2.5 1.2743,1.375 2.5878,2.5 2.9189,2.5 0.3311,0 2.0401,1.3479 3.7977,2.9954 1.7577,1.6474 3.6458,3.0046 4.1958,3.0159 0.55,0.011 2.5093,1.351 4.3539,2.9771 1.8447,1.626 6.9072,5.0059 11.25,7.5109 6.6799,3.8529 8.9655,5.5007 7.6302,5.5007 -0.1462,0 -3.1837,-1.7059 -6.75,-3.791 z M 2509,3575.772 c -1.375,-0.601 -5.2,-2.2437 -8.5,-3.6505 -6.4381,-2.7446 -25.3084,-13.1534 -28.2285,-15.5708 -0.9743,-0.8066 -3.5715,-2.8356 -5.7715,-4.5089 -8.6872,-6.6072 -12.3474,-9.8413 -21,-18.5549 -8.5972,-8.6578 -15.9965,-17.0438 -17.875,-20.2586 -0.8221,-1.4069 -2.8366,-3.994 -5.1314,-6.5899 -1.1066,-1.2519 -9.9477,-14.9945 -13.3916,-20.8159 -5.1235,-8.6607 -10.0937,-19.525 -10.0977,-22.0725 0,-2.3655 0.399,-2.75 2.8807,-2.75 2.047,0 3.4044,0.7987 4.6733,2.75 1.8183,2.7959 19.8569,20.9236 22.6383,22.75 4.2502,2.7909 7.4959,5.1587 9.242,6.742 1.0662,0.9669 2.5287,1.758 3.25,1.758 0.7213,0 1.3114,0.4754 1.3114,1.0565 0,1.4149 -4.4528,-1.2867 -14.3229,-8.6898 -7.618,-5.714 -12.5136,-10.4571 -21.9899,-21.305 -3.5429,-4.0557 -3.9296,-4.2479 -5.4625,-2.715 -1.5329,1.5329 -1.263,2.406 3.8128,12.3342 22.0189,43.0682 59.5281,80.066 97.3283,96.0012 12.272,5.1734 12.2908,5.1825 10.6342,5.1825 -0.825,0 -2.625,-0.4917 -4,-1.0926 z m -173.2047,-28.057 c -1.4875,-2.3547 -4.5317,-7.7708 -6.7648,-12.0356 -2.2332,-4.2648 -4.465,-8.5249 -4.9597,-9.4668 -0.4947,-0.9419 -1.8848,-4.1876 -3.0892,-7.2126 -1.2043,-3.025 -2.7791,-6.85 -3.4994,-8.5 -1.1384,-2.6076 -6.6997,-19.1143 -9.4335,-28 -1.1852,-3.8524 -3.5603,-15.9621 -6.3742,-32.5 -2.872,-16.8787 -3.9064,-34.3286 -3.5392,-59.7012 0.2226,-15.3825 0.7642,-25.6001 1.39,-26.2253 0.7004,-0.6996 0.7536,2.3746 0.1677,9.7012 -1.1616,14.5274 -0.1621,51.0067 1.8008,65.7253 4.7185,35.3798 13.2669,64.3697 27.1286,92 6.5321,13.0204 10.4384,19 12.4122,19 2.5644,0 2.1691,-3.1986 -1.966,-15.9091 -5.9425,-18.2656 -9.703,-33.84 -13.1812,-54.5909 -1.4288,-8.5244 -1.7823,-40.5498 -0.5445,-49.3342 1.4416,-10.2312 1.8427,-5.314 0.6926,8.4911 -2.3032,27.6453 2.7394,60.2839 14.9252,96.6055 5.0393,15.0201 5.0985,16.2382 0.7893,16.2358 -2.7386,0 -3.6756,-0.6754 -5.9547,-4.2832 z m 235.288,-17.101 c 0.2292,-0.2123 3.5667,-1.6265 7.4167,-3.1426 21.6852,-8.5398 39.4593,-20.2905 56.5725,-37.4009 27.8204,-27.8161 41.5721,-55.6253 83.1107,-168.0705 29.2443,-79.1644 45.5087,-111.9634 66.414,-133.9313 4.6216,-4.8564 8.4028,-9.1086 8.4028,-9.4493 0,-2.0194 -5.632,0.048 -11.5932,4.2559 -22.7398,16.0512 -42.8689,39.0229 -56.2631,64.2082 -6.501,12.2238 -9.9781,21.1587 -15.148,38.9246 -4.2054,14.4512 -7.2175,21.5697 -4.3943,10.385 5.1387,-20.3581 10.4736,-35.1822 17.4158,-48.3931 1.5896,-3.025 3.6985,-7.075 4.6865,-9 0.988,-1.925 2.127,-3.95 2.5312,-4.5 0.4042,-0.55 1.7578,-2.35 3.008,-4 1.2501,-1.65 3.8293,-5.25 5.7315,-8 4.2434,-6.1349 6.1282,-8.2665 17.5507,-19.8487 10.8523,-11.0041 13.8446,-13.6393 23.0498,-20.2998 8.7503,-6.3313 12.5905,-8.3515 15.8754,-8.3515 3.7639,0 3.4436,4.0158 -0.5653,7.0881 -5.0456,3.8669 -14.3026,13.1357 -16.8903,16.9119 -1.3191,1.925 -2.6865,3.725 -3.0388,4 -0.9123,0.7123 -12.2202,18.9102 -13.9811,22.5 -0.8094,1.65 -1.7208,3.225 -2.0253,3.5 -0.3045,0.275 -1.3787,2.3 -2.3869,4.5 -1.0083,2.2 -3.2786,7.15 -5.0451,11 -1.7665,3.85 -4.001,8.8 -4.9656,11 -0.9646,2.2 -2.8334,6.2259 -4.1529,8.9463 -1.3194,2.7205 -2.399,5.3369 -2.399,5.8141 0,0.4773 -1.0558,3.2014 -2.3463,6.0537 -1.2904,2.8522 -3.1452,7.4359 -4.1218,10.1859 -0.9765,2.75 -2.3588,6.35 -3.0716,8 -0.7129,1.65 -2.0499,5.025 -2.9712,7.5 -0.9213,2.475 -2.0357,5.4 -2.4763,6.5 -0.4407,1.1 -1.5588,4.25 -2.4847,7 -0.9259,2.75 -2.1587,6.125 -2.7396,7.5 -0.5808,1.375 -1.3884,3.4 -1.7945,4.5 -0.4061,1.1 -2.7672,7.4 -5.2468,14 -2.4796,6.6 -5.272,14.25 -6.2054,17 -0.9334,2.75 -2.1122,6.0125 -2.6195,7.25 -0.5072,1.2375 -1.3264,3.2625 -1.8203,4.5 -0.494,1.2375 -1.5515,3.825 -2.35,5.75 -0.7986,1.925 -2.0149,5.075 -2.7029,7 -1.3842,3.8729 -2.554,6.8544 -4.0215,10.25 -0.5349,1.2375 -1.8356,4.5 -2.8906,7.25 -3.0302,7.8985 -12.7123,29.1412 -17.7756,39 -7.1698,13.9604 -8.857,17.0059 -9.6025,17.3333 -0.4174,0.1834 -0.7589,0.7675 -0.7589,1.2981 0,1.1597 -6.604,11.6154 -8.5923,13.6038 -0.7743,0.7742 -1.4077,1.7407 -1.4077,2.1477 0,0.407 -0.7875,1.617 -1.75,2.6889 -0.9625,1.0719 -3.4431,4.0519 -5.5125,6.6221 -14.5293,18.0461 -41.1089,36.824 -65.2623,46.1064 -6.4236,2.4687 -9.464,3.307 -8.3919,2.3137 z m -68.6967,-16.4305 c 0.2776,-0.4491 -0.9334,-1.6635 -2.691,-2.6987 -2.8317,-1.6678 -7.974,-5.9592 -12.622,-10.5334 -4.3875,-4.3179 -8.1615,-9.6612 -11.1079,-15.7264 -5.2304,-10.767 -6.0329,-13.3059 -8.4475,-26.725 -0.8907,-4.95 -2.0166,-10.8 -2.502,-13 -0.4854,-2.2 -1.3925,-6.925 -2.0158,-10.5 -2.0275,-11.6281 -4.289,-21.4792 -5.154,-22.45 -0.4655,-0.5225 -0.8464,-1.5567 -0.8464,-2.2983 0,-0.7416 -0.9,-3.2111 -2,-5.4878 -1.1,-2.2768 -2,-4.555 -2,-5.0629 0,-0.5078 -2.2872,-4.7099 -5.0827,-9.338 -4.9204,-8.1459 -18.8321,-23.4564 -25.3324,-27.8795 -1.6033,-1.0909 -3.4637,-2.526 -4.1342,-3.1891 -1.5814,-1.5639 -7.4562,-5.1521 -9.7007,-5.925 -0.9625,-0.3315 -1.75,-1.0002 -1.75,-1.486 0,-0.4859 -0.6053,-0.8834 -1.345,-0.8834 -0.7398,0 -2.2023,-0.9519 -3.25,-2.1152 -1.4472,-1.607 -0.5833,-1.3385 3.595,1.1171 20.9738,12.3263 34.5824,25.0459 43.8118,40.9497 7.6525,13.1865 10.3817,21.7938 15.2354,48.0484 5.0869,27.5167 7.25,35.7923 11.7204,44.8412 4.0687,8.2359 12.9642,18.4575 21.916,25.1831 8.0586,6.0546 7.9866,5.9757 5.4574,5.9757 -1.2425,0 -2.0319,-0.3674 -1.7544,-0.8165 z M 2559,3503.525 c 0,-0.2613 2.1375,-1.4071 4.75,-2.5462 8.4208,-3.6719 18.1928,-8.8763 24.3681,-12.978 3.3128,-2.2004 6.404,-4.0008 6.8693,-4.0008 0.4653,0 0.9959,-0.3452 1.1793,-0.7671 0.1833,-0.4219 2.5833,-2.545 5.3333,-4.718 2.75,-2.173 5.7421,-4.6403 6.6491,-5.4829 5.3285,-4.9501 18.5807,-18.1079 19.8509,-19.7095 0.825,-1.0402 3.5637,-4.3509 6.086,-7.3569 2.5224,-3.0061 5.4474,-6.8154 6.5,-8.4652 1.9093,-2.9923 3.9702,-5.7062 5.9701,-7.862 0.5809,-0.6261 1.9154,-2.6009 2.9656,-4.3884 1.0502,-1.7875 2.3067,-3.25 2.7921,-3.25 2.5939,0 -15.866,24.2424 -28.6687,37.6492 -17.5562,18.3844 -32.2979,29.4241 -52.0167,38.9541 -10.7697,5.205 -12.6284,5.9294 -12.6284,4.9217 z m 201,-7.1928 c 0,-0.4719 0.8818,-1.3022 1.9595,-1.8451 3.8044,-1.9165 23.5561,-13.9506 24.6989,-15.0484 0.6371,-0.612 3.5621,-2.6391 6.5,-4.5047 2.9379,-1.8657 5.8276,-3.8554 6.4217,-4.4217 0.594,-0.5663 3.3949,-2.6007 6.2242,-4.521 5.1592,-3.5015 6.2762,-4.9335 3.9457,-5.0582 -0.6875,-0.037 0.7571,-0.6922 3.2101,-1.4565 2.4531,-0.7643 4.6224,-1.2274 4.8207,-1.0291 0.5978,0.5977 -21.8533,16.5017 -35.5017,25.1488 -16.8212,10.6571 -22.2791,13.7772 -22.2791,12.7359 z m -249.7216,-9.2289 c -6.3255,-5.3044 -14.8099,-28.8012 -19.7817,-54.7836 -1.4925,-7.7994 -1.8922,-12.0486 -1.0547,-11.2111 0.2431,0.2431 0.9589,3.3556 1.5907,6.9167 3.0141,16.9879 6.6158,30.8163 10.1515,38.9747 0.5958,1.375 1.4441,3.4 1.885,4.5 3.0991,7.7324 5.1473,11.4234 7.9409,14.31 3.9973,4.1303 3.5642,4.8958 -0.7317,1.2933 z M 2759,3453.5469 c 0,-0.2492 1.6875,-1.1825 3.75,-2.0741 5.9331,-2.5647 10.7066,-4.9049 11.25,-5.5153 0.275,-0.309 2.3,-1.3774 4.5,-2.3743 3.9649,-1.7968 13.5383,-7.4769 14.5,-8.6032 0.275,-0.3221 2.0952,-1.554 4.0448,-2.7375 1.9497,-1.1836 4.606,-3.0724 5.903,-4.1972 1.297,-1.1249 2.6583,-2.0453 3.0251,-2.0453 0.3668,0 2.0618,-1.2375 3.7666,-2.75 1.7049,-1.5125 6.286,-5.3961 10.1802,-8.6302 3.8941,-3.2341 7.0803,-5.9944 7.0803,-6.1339 0,-0.1395 -3.2824,1.3816 -7.2943,3.3802 -12.5658,6.2601 -24.9934,11.1433 -38.7025,15.2078 -11.5148,3.4138 -8.8826,2.0065 5.4968,-2.939 16.7841,-5.7724 25.8649,-9.6024 38.3938,-16.1933 5.1666,-2.7179 9.5903,-4.9416 9.8306,-4.9416 0.8459,0 -11.1132,10.5842 -20.1163,17.8036 -13.1962,10.5817 -27.2182,19.6624 -41.4979,26.874 -11.8651,5.9922 -14.1102,6.926 -14.1102,5.8693 z m -518.3831,-15.9968 c 1.1781,-10.3098 10.9888,-32.5378 21.144,-47.9061 7.5697,-11.4554 7.5983,-11.1234 -1.2609,-14.6708 -6.5443,-2.6205 -21.8134,-12.4151 -25.0037,-16.039 -1.9963,-2.2676 -1.9963,-2.2676 1.1708,-0.4343 1.7419,1.0083 4.7659,3.2981 6.7202,5.0884 1.9542,1.7904 8.5039,5.6529 14.5549,8.5834 12.869,6.2327 13.2308,6.9943 7.1826,15.1212 -3.5658,4.7912 -7.606,11.4863 -10.6855,17.7071 -5.3881,10.8839 -9.4626,20.3581 -10.7517,25 -0.8401,3.025 -2.0019,7.075 -2.5819,9 -0.9853,3.2704 -1.0174,3.1753 -0.4888,-1.4499 z M 2327,3422.3314 c 0,-2.3102 4.662,-26.4165 8.4252,-43.5644 1.4161,-6.4532 2.5748,-11.9657 2.5748,-12.25 0,-0.2844 0.3839,-0.517 0.8532,-0.517 0.4693,0 -0.2167,4.6125 -1.5243,10.25 -1.3077,5.6375 -3.0854,13.85 -3.9505,18.25 -0.8651,4.4 -1.9771,10.025 -2.4712,12.5 -0.494,2.475 -1.3228,7.135 -1.8417,10.3556 -0.9586,5.9494 -2.0655,8.616 -2.0655,4.9758 z m 161.1916,-4.8314 c -0.1027,-2.8522 0.4194,-3.254 10.6002,-8.1555 34.429,-16.5759 58.1187,-40.621 66.5955,-67.5945 0.3024,-0.9625 0.9402,-1.75 1.4173,-1.75 1.6435,0 20.7063,18.79 26.1954,25.8205 3.025,3.8745 7.5602,11.0124 10.0782,15.862 3.6817,7.091 5.0034,8.802 6.75,8.7381 1.2297,-0.045 2.1718,0.5261 2.1718,1.3164 0,1.8785 -5.0581,1.2597 -6.0237,-0.737 -7.0293,-14.5358 -8.7087,-17.7307 -9.9873,-19 -0.8311,-0.825 -2.8152,-3.3 -4.4091,-5.5 -3.5904,-4.9558 -23.1909,-24.5 -24.5706,-24.5 -0.5551,0 -1.0093,0.9061 -1.0093,2.0136 0,1.1074 -0.4325,2.7949 -0.9611,3.75 -0.5285,0.955 -2.1786,4.4364 -3.6667,7.7364 -1.4882,3.3 -2.9979,6.225 -3.355,6.5 -0.357,0.275 -2.0398,2.5447 -3.7394,5.0438 -1.6996,2.4991 -4.4838,6.0991 -6.1872,8 -1.7034,1.9009 -3.497,3.9062 -3.9858,4.4562 -3.3719,3.7942 -18.8703,16.5 -20.1266,16.5 -0.3697,0 -1.7534,0.9377 -3.0749,2.0838 -3.0243,2.623 -19.7137,11.9752 -26.5964,14.9039 -4.1099,1.7487 -5.278,2.7627 -5.6002,4.861 -0.3872,2.5224 -0.4123,2.5055 -0.5151,-0.3487 z m 312.8266,-19.2078 c 0.01,-0.4357 3.835,-3.026 8.5,-5.7562 4.665,-2.7302 8.4818,-5.3177 8.4818,-5.75 0,-0.4323 0.5625,-0.7939 1.25,-0.8035 0.6875,-0.01 3.5824,-2.1471 6.4331,-4.75 2.8507,-2.6029 6.0007,-5.4075 7,-6.2325 2.961,-2.4445 11.4037,-12.2526 16.3721,-19.0197 5.3987,-7.3533 15.3856,-25.6411 19.9218,-36.4803 3.1805,-7.5998 7.1484,-19.6738 11.0092,-33.5 2.1185,-7.5865 2.8525,-9.5675 2.9349,-7.9205 0.1701,3.4041 -7.2676,28.0788 -12.1457,40.2934 -14.4448,36.1696 -34.8005,60.5799 -65.0254,77.9773 -2.6125,1.5038 -4.7418,2.3776 -4.7318,1.942 z m -129.9716,-9.4384 c -0.026,-0.3554 2.1233,-5.3054 4.7754,-11 2.6521,-5.6946 6.533,-14.8538 8.6243,-20.3538 4.8451,-12.7425 5.5923,-14.6171 6.6704,-16.7364 0.4858,-0.9551 0.8833,-2.4355 0.8833,-3.2899 0,-0.8543 0.8461,-3.2229 1.8802,-5.2635 1.0341,-2.0406 2.1982,-5.6203 2.587,-7.955 0.3887,-2.3346 1.1177,-4.4986 1.6198,-4.809 0.5022,-0.3103 0.913,-1.4377 0.913,-2.5052 0,-1.0676 0.4803,-1.941 1.0674,-1.941 1.3218,0 1.2352,0.2877 -6.6192,22 -8.0023,22.121 -22.1795,54.9372 -22.4016,51.8538 z M 2610.6641,3347.5 c -2.2476,-17.2027 -8.7344,-34.0189 -19.3223,-50.0907 -5.9581,-9.044 -8.618,-16.0006 -9.7155,-25.4093 -0.4515,-3.8706 -0.2765,-3.5908 1.2511,2 3.4648,12.6805 4.5454,16 5.2087,16 0.3692,0 1.2304,1.35 1.9139,3 0.6835,1.65 1.638,3 2.1213,3 0.4833,0 0.8787,0.4546 0.8787,1.0103 0,0.5556 1.4706,3.1431 3.268,5.75 3.9246,5.692 7.7518,13.5938 10.5295,21.7397 2.6547,7.7852 5.4609,22.4204 5.0064,26.1104 -0.2454,1.9922 -0.5993,1.0263 -1.1398,-3.1104 z m -29.0429,-91 c 1.9238,-17.5389 11.1105,-38.9067 23.8392,-55.4486 7.925,-10.2991 14.5108,-16.8804 25.9763,-25.9586 6.1603,-4.8777 18.8539,-15.5792 28.2079,-23.7812 30.5655,-26.801 48.7128,-41.0308 70.8554,-55.5595 13.9974,-9.1843 39.2289,-23.3565 40.0756,-22.5098 0.2848,0.2848 -2.7657,2.2068 -6.7789,4.2711 -14.2232,7.3159 -47.4922,28.1821 -51.7967,32.4866 -0.275,0.275 -4.325,3.4154 -9,6.9787 -4.675,3.5632 -9.3254,7.1632 -10.3342,8 -1.0088,0.8367 -2.8088,2.3062 -4,3.2656 -5.4004,4.3493 -10.2235,8.4254 -12.2365,10.3412 -1.2052,1.147 -4.3823,3.8452 -7.0603,5.9959 -2.6779,2.1507 -5.544,4.5926 -6.369,5.4263 -0.825,0.8338 -4.425,3.9803 -8,6.9923 -3.575,3.012 -7.175,6.1798 -8,7.0396 -0.825,0.8598 -3.3,2.8901 -5.5,4.5118 -2.2,1.6217 -5.35,4.1873 -7,5.7012 -1.65,1.5139 -3.675,2.9813 -4.5,3.2609 -2.4145,0.8181 -17.2448,16.373 -22.8691,23.9865 -2.8441,3.85 -5.5059,7.45 -5.9153,8 -1.6729,2.2479 -8.2156,13.696 -8.2156,14.3753 0,0.4026 -1.1663,3.0724 -2.5917,5.9329 -2.8039,5.6266 -5.0491,12.7846 -6.4903,20.6918 -0.5012,2.75 -1.3464,6.35 -1.8782,8 -0.8005,2.4834 -0.8726,2.1391 -0.4186,-2 z M 2890.5,3194 c 0,-18.425 0.2816,-30.35 0.6258,-26.5 0.8154,9.1215 0.8204,45.1526 0.01,53.5 -0.3482,3.575 -0.6331,-8.575 -0.6331,-27 z m -1.789,-41.5 c -1.2355,-9.7897 -2.8571,-18.8428 -3.8147,-21.2971 -0.493,-1.2633 -0.8963,-7.1483 -0.8963,-13.0777 0,-8.717 0.4399,-12.0102 2.298,-17.203 2.7801,-7.7694 6.759,-15.5696 9.6029,-18.8252 1.1545,-1.3217 2.0991,-2.7853 2.0991,-3.2526 0,-0.4673 4.9291,-5.8973 10.9536,-12.0667 7.6944,-7.8795 10.5954,-11.4773 9.75,-12.0917 -0.7828,-0.5689 -0.5631,-0.6669 0.6282,-0.2803 1.0075,0.3269 2.0764,0.5943 2.3754,0.5943 0.299,0 -3.8324,4.3875 -9.1808,9.75 -10.8391,10.8676 -19.6514,23.2458 -24.0398,33.7673 -2.631,6.3082 -2.9159,8.0936 -2.9495,18.4827 -0.026,8.0714 0.6515,15.0183 2.2725,23.3007 1.2703,6.4903 2.1631,13.2403 1.9841,15 -0.2413,2.3727 -0.5211,1.6491 -1.0827,-2.8007 z"
           id="path5" />
        <path
           style="fill:#fddd58"
           d="m 1460.4791,1040.0443 c -18.021,-0.5443 -18.021,-0.5443 -27.8142,-9.2666 -17.8722,-15.9179 -52.5113,-40.58596 -82.1649,-58.5132 -10.0965,-6.10393 -56.2197,-32.24507 -71,-40.24051 -88.2644,-47.74694 -124.4519,-72.93544 -158.7865,-110.52399 -47.6571,-52.17363 -74.2492,-111.2135 -83.3257,-185 -4.7142,-38.32424 0.1176,-95.33615 12.2042,-144 4.7965,-19.31209 9.4801,-35.34079 24.3989,-83.5 26.9551,-87.01377 32.8997,-108.07723 40.523,-143.58481 9.5705,-44.57676 11.4753,-49.40649 19.5761,-49.63681 2.7553,-0.0783 4.1219,0.799 8.3945,5.38926 2.8068,3.01557 9.7867,11.95903 15.5107,19.87438 15.812,21.86524 25.2853,33.31706 38.1261,46.08879 29.212,29.05488 63.669,49.32008 138.8787,81.67876 121.9278,52.45898 169.0489,76.96778 217.3398,113.04372 48.9936,36.60096 93.6498,100.69918 117.0353,167.98905 12.1178,34.8684 16.0484,60.07993 16.0044,102.65766 -0.031,30.52392 -1.5947,47.82519 -6.5057,72 -8.6196,42.43171 -24.8686,83.75858 -50.1308,127.5 -26.2289,45.41544 -32.1694,55.9816 -39.6324,70.4922 -4.5237,8.7957 -8.7617,16.2766 -9.4177,16.6242 -0.6561,0.3476 -12.2388,0.9446 -25.7393,1.3267 l -24.5464,0.6948 -2.771,-12.6444 c -6.5651,-29.95718 -11.4723,-44.18921 -40.1668,-116.4935 -28.6132,-72.09914 -31.13,-77.17446 -65.9955,-133.08531 -23.021,-36.91678 -48.4417,-69.26387 -91.0369,-115.84183 -67.7145,-74.04596 -82.5936,-95.80025 -98.9459,-144.66614 -4.9978,-14.93502 -7.8004,-27.39878 -11.447,-50.90672 -4.5886,-29.58147 -6.9188,-42.43994 -8.6533,-47.75 -1.4455,-4.4254 -1.7828,-4.75 -4.936,-4.75 -4.4801,0 -5.4548,2.02895 -5.4548,11.35471 0,16.84636 3.8738,61.38985 6.6143,76.05472 6.0867,32.57138 18.053,65.12335 33.9026,92.22514 10.1879,17.42054 20.5885,31.00172 60.013,78.36543 52.2699,62.79589 64.4221,78.69363 85.6123,112 39.7919,62.54397 54.851,95.59843 86.9941,190.95013 7.4461,22.08863 14.295,46.45457 17.3711,61.79987 0.6515,3.25 0.6515,3.25 -5.6779,3.0443 -3.4812,-0.1131 -14.4389,-0.4506 -24.3504,-0.75 z"
           id="path4" />
        <path
           style="fill:#fcdc57"
           d="m 1349.2372,686.25 c -7.1265,-8.1125 -18.7578,-21.06474 -25.8472,-28.78275 -11.9434,-13.00219 -32.0309,-35.64073 -36.7945,-41.46725 -5.1808,-6.33671 2.8252,2.23365 14.5425,15.56765 6.7991,7.7372 19.337,21.70411 27.862,31.03756 17.6025,19.27183 34.3711,38.39479 33.6676,38.39479 -0.2602,0 -6.3039,-6.6375 -13.4304,-14.75 z"
           id="path3" />
        <path
           style="fill:#000000"
           d="m 542,3999 c -16.5,-0.5754 -16.5,-0.5754 -4.5,-0.9889 10.35696,-0.357 10.90464,-0.4517 4,-0.6922 C 399.55826,3992.3751 266.47994,3934.4994 165.99028,3834.0097 65.500615,3733.5201 7.6248627,3600.4417 2.6811233,3458.5 c -0.2361255,-6.7795 -0.3367973,-6.1692 -0.6598708,4 -0.3812359,12 -0.3812359,12 -1.07358928,-6.5 -0.90498066,-24.1815 -0.90498066,-2887.8185 0,-2912 0.69235338,-18.5 0.69235338,-18.5 1.07358928,-6.5 0.3230735,10.16924 0.4237453,10.7795 0.6598708,4 C 7.6248627,399.55826 65.500615,266.47994 165.99028,165.99028 266.47994,65.500615 399.55826,7.6248627 541.5,2.6811233 c 6.7795,-0.2361255 6.16924,-0.3367973 -4,-0.6598708 -12,-0.3812359 -12,-0.3812359 6.5,-1.07358928 24.1815,-0.90498065 2887.8185,-0.90498065 2912,0 18.5,0.69235338 18.5,0.69235338 6.5,1.07358928 -10.1692,0.3230735 -10.7795,0.4237453 -4,0.6598708 141.9417,4.9437394 275.0201,62.8194917 375.5097,163.3091567 100.4897,100.48966 158.3654,233.56798 163.3092,375.50972 0.2361,6.7795 0.3368,6.16924 0.6598,-4 0.3813,-12 0.3813,-12 1.0736,6.5 0.905,24.1815 0.905,2887.8185 0,2912 -0.6923,18.5 -0.6923,18.5 -1.0736,6.5 -0.323,-10.1692 -0.4237,-10.7795 -0.6598,-4 -4.9438,141.9417 -62.8195,275.0201 -163.3092,375.5097 -100.4896,100.4897 -233.568,158.3654 -375.5097,163.3092 -6.7795,0.2361 -6.1692,0.3368 4,0.6598 12,0.3813 12,0.3813 -6.5,1.0736 -22.1304,0.8283 -2890.22643,0.7767 -2914,-0.052 z m 1968.5602,-369.0452 c 35.5807,-5.4279 75.0936,-19.4106 110.673,-39.1645 17.1698,-9.5329 39.3648,-24.2473 41.5226,-27.528 1.3297,-2.0217 1.2972,-2.3047 -0.3373,-2.932 -1.049,-0.4025 -4.3533,0.2784 -7.8639,1.6204 -43.4381,16.6057 -75.1112,21.8383 -106.1305,17.5332 -19.8763,-2.7586 -35.4425,-7.5849 -52.325,-16.2233 -29.737,-15.2157 -57.4958,-41.5568 -77.0955,-73.1581 l -4.9636,-8.0029 8.3627,6.7002 c 24.2939,19.4643 54.5204,30.1571 85.3473,30.192 6.8613,0.01 7.2487,-0.1124 7.2262,-2.2418 -0.017,-1.6409 -1.8146,-3.4682 -6.6388,-6.75 -9.1481,-6.2233 -19.4601,-15.9712 -23.7799,-22.4793 -6.4595,-9.7317 -9.5128,-19.7539 -14.4773,-47.5207 -4.6924,-26.245 -6.4768,-32.6211 -12.6623,-45.2455 -8.1492,-16.6323 -21.1194,-30.8953 -38.4179,-42.2471 -5.775,-3.7897 -10.6979,-7.0396 -10.9397,-7.2219 -0.2418,-0.1823 0.6582,-1.0823 2,-2 9.8906,-6.7643 28.3675,-28.8534 40.3893,-48.2855 44.7705,-72.3672 88.6319,-178.331 147.3583,-356 109.3503,-330.825 252.9112,-916.8286 305.6163,-1247.5 5.5946,-35.1 9.996,-65.6446 17.0757,-118.5 23.0428,-172.0333 44.5574,-280.1511 63.1505,-317.3525 2.0754,-4.1526 9.1308,-14.0611 16.8381,-23.6475 27.4423,-34.1324 44.8798,-63.2881 50.6949,-84.7621 2.6789,-9.8926 2.8571,-30.2307 0.3876,-44.2379 -4.537,-25.7345 -17.3558,-49.0767 -34.3536,-62.5557 -7.9378,-6.2946 -21.8605,-12.9799 -33.7174,-16.1902 -9.8907,-2.6779 -10.3443,-2.7072 -41.5,-2.6806 -37.4072,0.032 -69.2873,2.22 -130,8.9221 -31.3974,3.466 -59.5077,6.1134 -87,8.1934 -28.3963,2.1484 -103.4315,2.4072 -142.5,0.4914 -68.6269,-3.3652 -144.3548,-8.6316 -220,-15.2996 -49.6327,-4.375 -62.952,-3.3551 -82,6.2787 -23.8633,12.0692 -41.6399,37.4253 -49.2554,70.2567 -3.554,15.3218 -3.7282,38.0559 -0.4092,53.4059 4.071,18.8278 12.9878,41.9762 24.124,62.6265 6.7719,12.5574 22.2801,49.3845 24.867,59.0514 3.4928,13.0523 4.1736,18.9962 4.173,36.4337 0,34.8285 -6.0144,118.5898 -17.5574,244.5663 -21.338,232.8754 -40.961,392.0877 -69.5135,564 -19.0694,114.816 -36.3541,183.2717 -56.492,223.7352 -11.5762,23.2601 -22.7247,34.0882 -34.9837,33.978 -9.4134,-0.085 -20.429,-7.4441 -27.8287,-18.5921 -10.73,-16.1655 -29.1794,-76.1403 -44.4881,-144.6211 -12.1589,-54.3907 -20.9832,-102.1918 -42.7356,-231.5 -46.2234,-274.7765 -71.6519,-458.5458 -82.4007,-595.5 -1.7876,-22.7774 -2.4201,-69.2519 -1.1022,-81 3.4083,-30.385 10.5407,-52.6548 31.8667,-99.5 10.0227,-22.0162 17.6451,-45.6557 20.7789,-64.4419 3.2671,-19.5858 0.4281,-43.9164 -7.1529,-61.3003 -4.3938,-10.0753 -12.7407,-21.9083 -21.9503,-31.1179 -13.5067,-13.5067 -25.875,-20.8463 -44.1558,-26.2028 -14.4202,-4.2252 -23.7455,-4.1759 -83.2841,0.4404 -74.5202,5.778 -147.9805,10.6292 -205.2537,13.5546 l -10.7537,0.5493 5.6319,-11.2407 c 6.5384,-13.05 15.032,-28.27261 31.3799,-56.2407 32.0594,-54.84738 45.1455,-84.81469 55.9586,-128.14644 10.1041,-40.49064 13.1211,-84.65971 8.9038,-130.35356 -6.3034,-68.29585 -46.6368,-151.6761 -99.8256,-206.3671 -18.6565,-19.18332 -37.9486,-34.35544 -66.0513,-51.9455 C 1476.65,425.68228 1434.2334,405.05327 1324,357.9101 c -22.5037,-9.62409 -55.1872,-25.56239 -68.9826,-33.63975 -38.1962,-22.36439 -61.5683,-44.16676 -90.9976,-84.88603 -12.437,-17.20831 -19.8339,-25.71973 -24.407,-28.08456 -3.2607,-1.68618 -9.0012,-1.18449 -13.5882,1.18753 -5.1368,2.65631 -8.7022,13.77267 -16.5221,51.51271 -6.1319,29.59375 -13.5249,55.90047 -36.5338,130 -28.8382,92.87288 -33.8263,112.94777 -39.0102,157 -7.0202,59.6575 -2.1671,110.99968 15.3603,162.5 19.9868,58.72672 57.5832,110.34407 111.1812,152.64437 20.749,16.37544 56.1447,38.16336 107,65.86421 27.7169,15.09739 66.1706,36.79082 78.5,44.28529 32.4457,19.7223 63.3345,41.62683 82.541,58.53323 4.9158,4.3271 4.9158,4.3271 -4.5626,3.7147 -5.2131,-0.3368 -24.3284,-1.2648 -42.4784,-2.0621 -57.3902,-2.5212 -142.2921,-7.3338 -231,-13.0942 -46.7604,-3.0365 -60.7723,-2.8563 -75.6695,0.973 -11.5863,2.9782 -23.5021,7.9977 -31.4813,13.2616 -8.8921,5.8661 -22.8867,19.8757 -28.9355,28.9665 -19.20076,28.8569 -22.56931,69.2202 -8.8522,106.0701 5.1324,13.7878 14.2168,33.2019 21.7725,46.5296 23.3079,41.1133 41.2708,88.413 56.0326,147.545 9.2584,37.0865 14.9417,67.3431 22.167,118.0114 18.6449,130.7504 56.6402,335.421 106.0489,571.2573 59.5876,284.4217 126.3226,536.8822 213.5453,807.8481 51.3829,159.6262 101.6654,290.7677 141.906,370.1049 39.7329,78.336 79.5805,122.498 117.8498,130.6098 18.4071,3.9017 83.4126,0.5734 168.3641,-8.6203 116.9869,-12.6606 202.3255,-13.275 334.2523,-2.4065 43.5526,3.588 37.8073,2.5208 43.7535,8.1271 6.5538,6.1791 16.1764,12.7407 23.5781,16.078 3.1176,1.4056 5.8113,2.6694 5.986,2.8083 0.1748,0.1389 -2.6937,5.2675 -6.3742,11.3968 -15.4072,25.658 -21.4434,46.6312 -21.4434,74.5061 0,36.7883 13.0585,68.6819 39.4302,96.3033 13.2202,13.8466 31.8509,28.2444 36.5484,28.2444 2.9355,0 2.5551,-1.9732 -2.3706,-12.2958 -4.8478,-10.1597 -6.1682,-14.7839 -7.1968,-25.2042 l -0.691,-7 6.2981,7 c 23.2257,25.8143 48.3756,45.1202 75.9825,58.3267 25.0305,11.9741 48.2595,18.2961 75.4992,20.548 11.0701,0.9152 40.9726,-0.4234 54.0602,-2.4199 z m -184.5915,-115.653 c -7.4236,-17.7604 -13.4992,-38.2739 -16.8512,-56.8959 -4.1516,-23.0635 -5.3536,-39.1066 -4.9744,-66.3941 0.1975,-14.216 0.6109,-26.0991 0.9186,-26.4069 0.3078,-0.3077 6.7532,-0.02 14.3233,0.6387 13.0143,1.133 13.7397,1.3087 13.324,3.2273 -3.6207,16.7069 -10.025,49.5098 -11.3296,58.0291 -3.8744,25.3025 -1.2561,58.3655 7.0839,89.4535 0.8047,2.9994 1.3063,5.6102 1.1147,5.8018 -0.1915,0.1915 -1.8157,-3.1625 -3.6093,-7.4535 z m -829.319,-2474.0595 c -0.2575,-0.4167 -2.1016,-8.0716 -4.098,-17.0109 -3.373,-15.1032 -7.2144,-28.60053 -13.0154,-45.7314 -15.3432,-45.30987 -33.2728,-93.30598 -42.0259,-112.5 -10.9549,-24.0222 -19.8186,-40.10919 -40.445,-73.40482 -25.0108,-40.37331 -40.869,-61.26683 -101.0192,-133.09518 -36.5197,-43.60995 -47.0474,-58.50905 -60.0612,-85 -20.1169,-40.95024 -28.4665,-78.32603 -30.4935,-136.5 -0.8092,-23.22444 0.9371,-17.02587 8.0291,28.5 5.1149,32.8339 8.2731,45.89206 16.3883,67.75874 11.0219,29.69911 22.1293,48.49046 45.9519,77.74126 11.432,14.0369 16.3481,19.63867 45.6392,52.00434 55.8544,61.71734 73.2475,84.48945 108.0727,141.49566 19.6063,32.09399 27.6817,49.01254 49.1632,103 28.4144,71.41111 34.3692,87.92436 40.1973,111.4713 2.7867,11.2593 5.0668,20.8218 5.0668,21.25 0,1.0042 -26.7299,1.0247 -27.3503,0.021 z m 1098.9551,2516.7266 c 69.7695,-5.579 152.0378,-39.471 220.8952,-91.002 15.3425,-11.482 18.5,-14.3029 18.5,-16.5286 0,-2.165 -4.1073,-1.5676 -13.1933,1.919 -15.6914,6.0214 -41.4564,10.8734 -64.3067,12.1101 -11,0.5953 -11,0.5953 -2.5,-2.4399 19.6463,-7.0155 41.3757,-19.5752 62.9437,-36.382 14.0844,-10.9752 38.0563,-34.5687 38.0563,-37.4556 0,-3.5356 -2.5986,-2.6634 -13.3097,4.4673 -18.6701,12.4292 -38.2749,21.5894 -63.788,29.8047 -7.7514,2.4959 -14.613,4.5375 -15.2479,4.5367 -0.6349,-8e-4 5.3706,-3.5152 13.3456,-7.8099 38.1908,-20.5663 48.4091,-27.3615 62.528,-41.5817 12.7267,-12.8179 20.9681,-24.5859 29.4884,-42.107 25.7372,-52.9254 34.6025,-136.3147 21.8109,-205.1584 -1.7111,-9.2091 -1.8923,-12.1788 -1.0374,-17 2.7178,-15.3264 10.3151,-27.6831 27.8319,-45.2675 6.808,-6.8342 12.3782,-12.7416 12.3782,-13.1275 0,-2.2305 -8.1323,-4.5643 -26.5,-7.6052 -14.2184,-2.3539 -49.0872,-2.3336 -64,0.037 -46.3187,7.3639 -89.4581,27.1824 -136.7397,62.8191 -14.1236,10.6451 -24.9636,19.619 -46.4364,38.4423 -8.8969,7.799 -21.3184,18.2517 -27.6035,23.2282 -19.0927,15.1173 -30.8308,29.3943 -40.8056,49.6318 -8.102,16.4377 -10.9148,27.7964 -10.9148,44.0766 0,15.7445 2.471,24.3202 10.4023,36.1007 13.5469,20.1218 18.9076,37.4419 20.1903,65.2342 0.6272,13.5885 0.6272,13.5885 -3.0227,7.6509 -7.3952,-12.0303 -25.7413,-31.6768 -35.7899,-38.3267 -4.7067,-3.1148 -5.6816,-2.4377 -8.3005,5.7643 -4.1159,12.8909 -11.4884,24.1985 -23.4862,36.0224 -10.6835,10.5286 -23.5231,19.4464 -40.4933,28.1247 -13,6.648 -13,6.648 -12.7182,12.5005 0.8075,16.7723 9.6909,50.4228 17.287,65.4839 5.4905,10.886 24.3422,20.8343 47.976,25.3175 7.8193,1.4833 8.1387,1.4647 14.227,-0.8279 22.0785,-8.3138 42.2731,-22.1768 62.2991,-42.7666 20.1916,-20.7601 33.8982,-40.8828 50.306,-73.8545 13.5851,-27.2995 27.2391,-63.8338 38.6811,-103.5 9.3076,-32.2671 20.0218,-51.4851 42.8055,-76.7806 4.3498,-4.8293 8.0821,-8.6071 8.2941,-8.3952 0.2119,0.212 -2.135,4.6132 -5.2155,9.7806 -13.9105,23.3346 -26.6713,53.5093 -54.8579,129.7188 -26.6619,72.0869 -42.1569,105.3858 -60.3731,129.7416 -6.5524,8.7608 -20.4262,22.573 -29.7111,29.5793 -29.9659,22.6118 -67.8228,34.8555 -107.7713,34.8555 -11.2129,0 -14.6318,0.305 -15.0292,1.3407 -0.8265,2.1538 0.5207,3.4255 6.3345,5.9798 27.2016,11.9511 59.9373,16.5777 96.5708,13.6484 z"
           id="path2" />
      </g>
    </g>
  </g>
</svg>
